<?xml version="1.0" encoding="UTF-8"?><svg xmlns="http://www.w3.org/2000/svg" xmlns:xlink="http://www.w3.org/1999/xlink" width="75" zoomAndPan="magnify" viewBox="0 0 75 44.999999" height="44.999999" preserveAspectRatio="xMidYMid meet" version="1.0"><defs><clipPath id="clip-0"><path d="M 1.804688 20.785156 L 72.933594 20.785156 L 72.933594 24.53125 L 1.804688 24.53125 Z M 1.804688 20.785156 " clip-rule="nonzero"/></clipPath></defs><path fill="rgb(0%, 0%, 0%)" d="M 72.253906 23.882812 C 72.195312 23.863281 72.136719 23.84375 72.078125 23.820312 C 72.09375 23.832031 72.140625 23.851562 72.253906 23.882812 " fill-opacity="1" fill-rule="nonzero"/><path fill="rgb(0%, 0%, 0%)" d="M 72.40625 23.976562 C 72.410156 23.976562 72.417969 23.980469 72.421875 23.980469 C 72.417969 23.976562 72.414062 23.976562 72.40625 23.976562 " fill-opacity="1" fill-rule="nonzero"/><path fill="rgb(0%, 0%, 0%)" d="M 15.222656 22.742188 C 15.164062 22.703125 15.113281 22.671875 15.082031 22.660156 C 15.167969 22.710938 15.207031 22.738281 15.222656 22.742188 " fill-opacity="1" fill-rule="nonzero"/><path fill="rgb(0%, 0%, 0%)" d="M 25.984375 21.863281 C 25.976562 21.867188 25.972656 21.867188 25.96875 21.871094 C 25.988281 21.878906 25.992188 21.878906 25.984375 21.863281 " fill-opacity="1" fill-rule="nonzero"/><path fill="rgb(0%, 0%, 0%)" d="M 70.238281 22.839844 C 70.265625 22.859375 70.292969 22.875 70.316406 22.890625 C 70.339844 22.890625 70.261719 22.847656 70.238281 22.839844 " fill-opacity="1" fill-rule="nonzero"/><path fill="rgb(0%, 0%, 0%)" d="M 12.761719 22.097656 C 12.753906 22.101562 12.75 22.109375 12.746094 22.113281 C 12.753906 22.105469 12.757812 22.101562 12.761719 22.097656 " fill-opacity="1" fill-rule="nonzero"/><path fill="rgb(0%, 0%, 0%)" d="M 63.597656 23.777344 C 63.574219 23.789062 63.550781 23.796875 63.527344 23.804688 C 63.550781 23.800781 63.578125 23.789062 63.597656 23.777344 " fill-opacity="1" fill-rule="nonzero"/><path fill="rgb(0%, 0%, 0%)" d="M 27.597656 23.90625 C 27.636719 23.925781 27.660156 23.933594 27.671875 23.933594 C 27.625 23.914062 27.59375 23.898438 27.597656 23.90625 " fill-opacity="1" fill-rule="nonzero"/><g clip-path="url(#clip-0)"><path fill="rgb(0%, 0%, 0%)" d="M 27.675781 23.828125 C 27.402344 23.683594 27.425781 23.710938 27.503906 23.777344 C 27.582031 23.84375 27.71875 23.941406 27.671875 23.933594 C 27.820312 24.011719 28.144531 24.175781 28 24.078125 C 28.136719 24.183594 28.375 24.28125 28.628906 24.347656 C 28.882812 24.417969 29.148438 24.449219 29.332031 24.492188 C 29.351562 24.484375 29.136719 24.445312 29.394531 24.449219 C 29.585938 24.457031 29.675781 24.460938 29.738281 24.464844 C 29.796875 24.46875 29.832031 24.480469 29.910156 24.480469 C 29.9375 24.472656 29.996094 24.460938 30.066406 24.445312 C 30.132812 24.433594 30.210938 24.414062 30.289062 24.394531 C 30.433594 24.355469 30.558594 24.320312 30.53125 24.332031 C 30.765625 24.242188 30.265625 24.34375 30.585938 24.214844 C 30.796875 24.101562 31.097656 24.019531 31.332031 23.886719 C 31.480469 23.828125 31.414062 23.867188 31.289062 23.933594 C 31.230469 23.964844 31.152344 24 31.085938 24.035156 C 31.019531 24.066406 30.957031 24.09375 30.925781 24.109375 C 31.210938 23.988281 31.480469 23.839844 31.738281 23.683594 C 31.980469 23.574219 31.65625 23.789062 31.414062 23.90625 C 31.753906 23.765625 32.132812 23.496094 32.207031 23.410156 C 32.398438 23.296875 32.492188 23.226562 32.675781 23.128906 C 32.511719 23.257812 32.554688 23.308594 32.28125 23.492188 C 31.816406 23.777344 32.425781 23.347656 32.027344 23.582031 L 32.011719 23.636719 C 31.832031 23.71875 31.707031 23.824219 31.515625 23.929688 C 31.402344 23.976562 31.53125 23.90625 31.601562 23.859375 C 31.257812 24.050781 30.960938 24.160156 30.683594 24.300781 C 30.949219 24.230469 31.257812 24.089844 31.519531 23.949219 C 31.78125 23.808594 31.996094 23.675781 32.101562 23.636719 C 32.390625 23.441406 32.664062 23.238281 32.9375 23.046875 C 32.929688 23.027344 32.621094 23.191406 32.847656 23.015625 C 32.96875 22.996094 33.226562 22.851562 33.554688 22.675781 C 33.484375 22.6875 33.609375 22.601562 33.730469 22.527344 C 33.851562 22.457031 33.96875 22.386719 33.878906 22.410156 C 33.734375 22.507812 33.640625 22.511719 33.617188 22.519531 C 33.9375 22.351562 33.644531 22.453125 33.820312 22.363281 C 34.117188 22.226562 34.117188 22.242188 34.113281 22.253906 C 34.109375 22.257812 34.105469 22.265625 34.140625 22.253906 C 34.175781 22.246094 34.25 22.21875 34.398438 22.171875 C 34.277344 22.234375 33.984375 22.40625 33.679688 22.59375 C 33.710938 22.601562 33.992188 22.429688 34.136719 22.398438 C 34.039062 22.425781 34.066406 22.402344 34.097656 22.375 C 34.132812 22.351562 34.171875 22.328125 34.09375 22.355469 C 34.546875 22.132812 35.097656 21.929688 35.691406 22.007812 C 35.640625 22.035156 35.394531 22.023438 35.1875 22.054688 C 34.976562 22.082031 34.808594 22.136719 34.90625 22.164062 C 34.972656 22.148438 35.023438 22.140625 35.066406 22.128906 C 35.109375 22.121094 35.140625 22.109375 35.171875 22.105469 C 35.234375 22.09375 35.289062 22.078125 35.402344 22.085938 C 35.496094 22.109375 35.660156 22.125 35.847656 22.15625 C 36.035156 22.191406 36.25 22.246094 36.441406 22.320312 C 36.386719 22.292969 36.332031 22.261719 36.277344 22.238281 C 36.429688 22.269531 36.691406 22.394531 36.855469 22.480469 L 36.808594 22.46875 L 36.976562 22.539062 C 37 22.554688 37.003906 22.558594 37.003906 22.5625 C 37.191406 22.628906 37.636719 22.917969 37.984375 23.121094 C 38 23.089844 37.644531 22.910156 37.484375 22.808594 C 37.445312 22.773438 37.132812 22.578125 37.296875 22.644531 C 37.726562 22.890625 38.035156 23.046875 38.527344 23.347656 L 38.375 23.242188 C 38.542969 23.3125 38.75 23.457031 38.992188 23.589844 C 39.207031 23.722656 39.121094 23.6875 39.011719 23.644531 C 38.902344 23.597656 38.777344 23.535156 38.902344 23.621094 C 38.714844 23.554688 38.441406 23.34375 38.375 23.355469 C 38.457031 23.425781 38.539062 23.496094 38.625 23.566406 C 38.863281 23.671875 39.105469 23.855469 39.28125 23.933594 L 39.105469 23.820312 C 39.160156 23.804688 39.3125 23.917969 39.398438 23.960938 L 39.296875 23.851562 C 39.039062 23.710938 38.84375 23.652344 38.675781 23.519531 C 38.902344 23.640625 38.996094 23.671875 39.101562 23.714844 C 39.207031 23.753906 39.324219 23.804688 39.609375 23.929688 C 39.628906 23.964844 39.496094 23.890625 39.433594 23.878906 C 39.621094 23.980469 39.84375 24.035156 40.175781 24.148438 C 39.976562 24.109375 39.667969 24.011719 39.898438 24.132812 C 39.964844 24.136719 40.027344 24.144531 40.089844 24.152344 C 40.246094 24.203125 40.179688 24.199219 40.242188 24.21875 C 40.355469 24.253906 40.347656 24.238281 40.351562 24.226562 C 40.355469 24.214844 40.378906 24.214844 40.558594 24.253906 C 40.609375 24.273438 40.730469 24.300781 40.675781 24.300781 C 40.890625 24.328125 40.941406 24.324219 40.988281 24.316406 C 41.039062 24.3125 41.082031 24.308594 41.28125 24.289062 C 41.191406 24.292969 41.125 24.289062 41.078125 24.285156 C 41.035156 24.277344 41.011719 24.265625 41.007812 24.257812 C 41.007812 24.25 41.03125 24.242188 41.074219 24.234375 C 41.121094 24.230469 41.1875 24.21875 41.277344 24.214844 C 41.53125 24.199219 41.742188 24.152344 41.929688 24.101562 C 42.117188 24.050781 42.28125 23.996094 42.449219 23.957031 C 42.515625 23.917969 42.585938 23.882812 42.648438 23.839844 C 42.589844 23.890625 42.664062 23.859375 42.769531 23.808594 C 42.875 23.753906 43.011719 23.679688 43.082031 23.640625 C 43.117188 23.648438 42.949219 23.742188 42.773438 23.832031 C 42.597656 23.921875 42.410156 24.003906 42.421875 24.039062 C 42.734375 23.914062 42.609375 23.992188 42.511719 24.054688 C 42.683594 23.980469 42.707031 23.949219 42.707031 23.929688 C 42.710938 23.914062 42.6875 23.902344 42.753906 23.855469 C 42.761719 23.867188 42.898438 23.796875 43.011719 23.742188 C 43.125 23.683594 43.214844 23.640625 43.128906 23.710938 C 43.398438 23.5625 43.421875 23.492188 43.617188 23.382812 C 43.597656 23.414062 43.574219 23.457031 43.601562 23.464844 C 43.617188 23.4375 43.871094 23.300781 43.914062 23.269531 C 43.867188 23.289062 43.984375 23.179688 43.769531 23.332031 C 43.8125 23.269531 44.285156 22.992188 44.257812 22.976562 C 44.300781 22.996094 44.726562 22.671875 44.960938 22.546875 C 44.894531 22.472656 44.558594 22.847656 44.445312 22.832031 C 44.589844 22.71875 44.839844 22.546875 45.117188 22.378906 C 45.394531 22.207031 45.699219 22.042969 45.949219 21.914062 C 46.394531 21.757812 45.957031 21.949219 46.0625 21.949219 C 45.960938 21.988281 45.878906 22.03125 45.808594 22.058594 C 45.738281 22.09375 45.675781 22.121094 45.617188 22.148438 C 45.5 22.207031 45.390625 22.265625 45.226562 22.371094 C 45.414062 22.269531 45.660156 22.136719 45.894531 22.027344 C 46.132812 21.917969 46.355469 21.835938 46.496094 21.785156 C 46.710938 21.734375 46.832031 21.742188 46.964844 21.753906 C 47.027344 21.761719 47.09375 21.761719 47.175781 21.773438 C 47.261719 21.777344 47.355469 21.785156 47.484375 21.792969 C 47.417969 21.753906 47.433594 21.75 47.269531 21.726562 C 47.410156 21.722656 47.570312 21.75 47.714844 21.785156 C 47.8125 21.785156 47.492188 21.710938 47.699219 21.738281 C 47.78125 21.757812 47.949219 21.816406 47.910156 21.824219 L 47.878906 21.816406 C 48.125 21.875 48.207031 21.933594 48.277344 21.980469 C 48.351562 22.027344 48.417969 22.0625 48.628906 22.136719 C 48.605469 22.105469 48.507812 22.082031 48.410156 22.027344 C 48.34375 21.96875 48.609375 22.050781 48.800781 22.148438 C 48.757812 22.148438 48.964844 22.242188 49.09375 22.324219 C 49.164062 22.40625 48.761719 22.144531 48.683594 22.136719 C 48.804688 22.199219 48.921875 22.269531 49.042969 22.339844 L 48.96875 22.292969 C 49.105469 22.355469 49.238281 22.429688 49.375 22.5 C 49.097656 22.339844 49.261719 22.378906 49.386719 22.453125 C 49.652344 22.628906 49.921875 22.816406 49.871094 22.828125 C 49.921875 22.816406 50.257812 23.039062 50.511719 23.183594 C 50.246094 23.003906 50.492188 23.132812 50.574219 23.167969 C 50.707031 23.257812 50.835938 23.351562 50.972656 23.4375 C 50.523438 23.207031 51.050781 23.519531 50.9375 23.488281 C 50.792969 23.457031 50.53125 23.285156 50.3125 23.140625 C 50.515625 23.308594 50.679688 23.390625 50.835938 23.464844 C 51 23.53125 51.152344 23.59375 51.359375 23.695312 C 51.355469 23.714844 51.308594 23.71875 51.125 23.628906 C 51.195312 23.679688 51.519531 23.777344 51.816406 23.878906 C 51.777344 23.863281 51.71875 23.832031 51.707031 23.8125 C 51.695312 23.796875 51.730469 23.796875 51.882812 23.832031 C 52.007812 23.878906 52.140625 23.921875 52.277344 23.953125 C 52.515625 23.988281 52.558594 23.96875 52.589844 23.953125 C 52.621094 23.9375 52.640625 23.925781 52.835938 23.902344 L 52.707031 23.894531 L 52.578125 23.875 C 52.589844 23.867188 52.625 23.863281 52.675781 23.859375 C 52.726562 23.859375 52.792969 23.851562 52.855469 23.847656 C 52.980469 23.835938 53.101562 23.816406 53.105469 23.792969 C 52.871094 23.828125 52.738281 23.871094 52.488281 23.851562 C 52.441406 23.824219 52.519531 23.828125 52.628906 23.824219 C 52.683594 23.824219 52.746094 23.820312 52.800781 23.8125 C 52.859375 23.808594 52.910156 23.800781 52.945312 23.789062 C 53.199219 23.769531 53.300781 23.742188 53.382812 23.730469 C 53.46875 23.710938 53.535156 23.703125 53.722656 23.65625 C 53.738281 23.683594 53.59375 23.761719 53.453125 23.824219 C 53.308594 23.886719 53.167969 23.9375 53.21875 23.972656 C 53.476562 23.917969 53.777344 23.808594 54.042969 23.6875 C 54.308594 23.566406 54.542969 23.441406 54.691406 23.371094 C 55.074219 23.132812 55.011719 23.105469 54.941406 23.105469 C 55.097656 23.007812 55.175781 22.964844 55.28125 22.914062 L 55.113281 23.039062 C 55.34375 22.890625 55.519531 22.773438 55.703125 22.660156 C 55.886719 22.550781 56.074219 22.441406 56.324219 22.328125 C 56.601562 22.199219 56.476562 22.210938 56.398438 22.210938 C 56.5 22.164062 56.605469 22.121094 56.710938 22.085938 L 56.660156 22.09375 C 56.71875 22.023438 57.011719 21.949219 57.234375 21.925781 C 57.234375 21.945312 57.101562 21.96875 57.117188 21.980469 C 57.214844 21.96875 57.335938 21.957031 57.453125 21.949219 C 57.511719 21.945312 57.570312 21.941406 57.621094 21.945312 C 57.671875 21.941406 57.722656 21.941406 57.761719 21.941406 C 57.761719 21.949219 57.726562 21.960938 57.664062 21.96875 C 57.632812 21.972656 57.597656 21.976562 57.550781 21.976562 C 57.507812 21.980469 57.457031 21.984375 57.398438 21.984375 C 57.375 21.980469 57.386719 21.972656 57.363281 21.972656 C 57.234375 21.992188 57.105469 22.019531 56.980469 22.054688 C 57.199219 21.996094 57.378906 21.984375 57.5 21.996094 C 57.617188 22.007812 57.679688 22.039062 57.671875 22.058594 C 57.886719 22.066406 57.804688 22.046875 57.726562 22.027344 C 57.6875 22.019531 57.648438 22.015625 57.65625 22.007812 C 57.660156 22.003906 57.710938 22 57.839844 22.011719 C 58.011719 22.054688 58.171875 22.105469 58.324219 22.160156 C 58.476562 22.21875 58.625 22.28125 58.757812 22.347656 C 59.023438 22.484375 59.246094 22.636719 59.382812 22.804688 C 59.679688 22.976562 60.027344 23.199219 60.472656 23.527344 C 60.488281 23.5 60.777344 23.734375 60.757812 23.664062 C 60.351562 23.320312 59.933594 23.128906 59.632812 22.828125 C 59.4375 22.707031 59.484375 22.78125 59.390625 22.738281 C 59.222656 22.625 59.0625 22.523438 59.050781 22.488281 C 59.253906 22.601562 59.292969 22.605469 59.339844 22.613281 C 59.390625 22.625 59.453125 22.640625 59.699219 22.820312 C 59.675781 22.785156 59.5625 22.695312 59.429688 22.605469 C 59.300781 22.511719 59.152344 22.417969 59.058594 22.359375 C 59.121094 22.378906 59.074219 22.324219 58.957031 22.242188 C 59.105469 22.289062 59.414062 22.457031 59.574219 22.542969 C 59.515625 22.519531 59.605469 22.59375 59.558594 22.574219 C 59.742188 22.679688 59.921875 22.792969 60.101562 22.910156 C 60.246094 23.046875 60.273438 23.101562 60.179688 23.054688 C 60.316406 23.167969 60.511719 23.304688 60.671875 23.414062 C 60.828125 23.523438 60.953125 23.609375 60.941406 23.632812 C 61.324219 23.875 60.835938 23.527344 60.8125 23.488281 L 60.847656 23.507812 C 60.714844 23.417969 60.585938 23.324219 60.457031 23.226562 C 60.445312 23.144531 60.886719 23.566406 60.984375 23.554688 C 61.042969 23.527344 61.175781 23.625 61.335938 23.746094 C 61.492188 23.867188 61.6875 24 61.84375 24.050781 C 61.714844 24.03125 61.589844 24 61.464844 23.964844 C 61.566406 24.011719 61.671875 24.054688 61.773438 24.09375 C 61.589844 24.042969 61.566406 24.097656 61.289062 23.984375 C 61.492188 24.101562 61.75 24.234375 62.003906 24.320312 C 62.253906 24.410156 62.5 24.445312 62.652344 24.441406 C 62.710938 24.460938 62.753906 24.476562 62.777344 24.488281 C 62.800781 24.5 62.800781 24.515625 62.773438 24.53125 C 63.015625 24.503906 63.203125 24.480469 63.382812 24.453125 C 63.558594 24.421875 63.730469 24.386719 63.925781 24.308594 C 64.121094 24.203125 64.015625 24.238281 63.898438 24.277344 C 63.777344 24.316406 63.640625 24.351562 63.785156 24.273438 C 63.917969 24.25 64.128906 24.132812 64.230469 24.066406 C 64.171875 24.105469 64.039062 24.171875 63.878906 24.230469 C 63.71875 24.292969 63.527344 24.34375 63.375 24.371094 C 63.605469 24.3125 63.566406 24.277344 63.625 24.242188 C 63.5 24.28125 63.375 24.3125 63.246094 24.332031 C 63.253906 24.304688 63.371094 24.28125 63.503906 24.246094 C 63.636719 24.207031 63.785156 24.15625 63.863281 24.109375 C 63.773438 24.195312 63.832031 24.171875 63.738281 24.257812 C 63.894531 24.191406 64.089844 24.097656 64.269531 24 C 64.453125 23.902344 64.625 23.804688 64.753906 23.738281 C 64.90625 23.664062 64.644531 23.835938 64.570312 23.894531 C 64.652344 23.882812 64.851562 23.699219 64.925781 23.695312 C 64.894531 23.75 64.75 23.8125 64.652344 23.878906 C 64.9375 23.710938 65.214844 23.527344 65.492188 23.347656 C 65.5 23.363281 65.296875 23.503906 65.164062 23.585938 C 65.425781 23.4375 65.601562 23.304688 65.863281 23.066406 C 66.152344 22.898438 66.492188 22.753906 66.40625 22.828125 C 66.535156 22.75 66.441406 22.78125 66.429688 22.765625 C 66.628906 22.671875 66.734375 22.613281 66.820312 22.5625 C 66.863281 22.539062 66.902344 22.515625 66.945312 22.496094 C 66.988281 22.472656 67.035156 22.453125 67.097656 22.4375 C 67.03125 22.441406 66.96875 22.453125 66.902344 22.464844 C 67.003906 22.4375 67.0625 22.421875 67.09375 22.410156 C 67.125 22.398438 67.132812 22.386719 67.140625 22.378906 C 67.15625 22.359375 67.164062 22.335938 67.351562 22.316406 C 67.296875 22.359375 67.328125 22.398438 67.390625 22.425781 C 67.40625 22.414062 67.429688 22.40625 67.460938 22.398438 C 67.492188 22.390625 67.53125 22.390625 67.574219 22.390625 C 67.613281 22.386719 67.660156 22.386719 67.703125 22.386719 C 67.746094 22.386719 67.789062 22.390625 67.828125 22.390625 C 67.78125 22.371094 67.863281 22.367188 67.929688 22.359375 C 67.960938 22.355469 67.992188 22.355469 67.996094 22.347656 C 67.996094 22.34375 67.976562 22.332031 67.914062 22.324219 C 68.097656 22.320312 68.234375 22.34375 68.351562 22.375 C 68.472656 22.398438 68.578125 22.433594 68.71875 22.445312 C 68.636719 22.417969 68.714844 22.425781 68.796875 22.445312 C 68.882812 22.464844 68.96875 22.480469 68.898438 22.445312 C 69.25 22.566406 69.460938 22.726562 69.355469 22.714844 C 69.242188 22.65625 69.058594 22.566406 69.0625 22.601562 L 69.21875 22.664062 L 69.371094 22.730469 C 69.472656 22.773438 69.574219 22.828125 69.671875 22.878906 C 69.816406 22.972656 70 23.085938 70.007812 23.136719 C 70.214844 23.199219 70.546875 23.488281 70.71875 23.523438 C 70.5 23.4375 70.367188 23.300781 70.292969 23.253906 L 70.386719 23.300781 C 70.371094 23.292969 70.359375 23.28125 70.339844 23.269531 L 70.625 23.359375 C 70.390625 23.1875 70.5625 23.371094 70.214844 23.167969 C 69.941406 22.933594 70.9375 23.480469 70.644531 23.257812 C 70.394531 23.089844 70.414062 23.171875 70.191406 23.070312 L 70.246094 23.101562 C 70.082031 23.019531 69.917969 22.9375 69.75 22.859375 C 69.738281 22.824219 69.890625 22.890625 69.890625 22.890625 C 69.597656 22.726562 69.425781 22.640625 69.246094 22.546875 C 69.15625 22.503906 69.066406 22.457031 68.953125 22.414062 C 68.898438 22.390625 68.835938 22.367188 68.769531 22.34375 C 68.699219 22.320312 68.621094 22.296875 68.535156 22.273438 C 68.558594 22.285156 68.601562 22.316406 68.597656 22.335938 C 68.597656 22.34375 68.585938 22.351562 68.554688 22.351562 C 68.523438 22.351562 68.472656 22.34375 68.394531 22.332031 C 68.175781 22.304688 68.152344 22.269531 67.96875 22.242188 C 68.023438 22.242188 68.078125 22.238281 68.136719 22.238281 C 68.195312 22.234375 68.257812 22.238281 68.332031 22.269531 L 68.324219 22.21875 C 68.390625 22.226562 68.445312 22.230469 68.492188 22.230469 C 68.539062 22.234375 68.574219 22.238281 68.605469 22.242188 C 68.667969 22.246094 68.707031 22.242188 68.753906 22.246094 C 68.796875 22.246094 68.847656 22.257812 68.933594 22.277344 C 69.015625 22.296875 69.132812 22.335938 69.304688 22.40625 C 69.328125 22.394531 69.464844 22.441406 69.636719 22.519531 C 69.8125 22.597656 70.019531 22.707031 70.195312 22.8125 C 70.140625 22.773438 70.089844 22.730469 70.035156 22.6875 C 70.425781 22.839844 70.085938 22.769531 70.570312 22.992188 C 70.730469 23.164062 71.046875 23.433594 70.765625 23.328125 C 71.085938 23.53125 71.210938 23.566406 71.503906 23.726562 C 71.664062 23.871094 71.390625 23.730469 71.402344 23.796875 C 71.625 23.910156 71.917969 24.011719 71.761719 23.910156 C 71.898438 23.980469 72.039062 24.042969 72.183594 24.097656 C 72.191406 24.113281 72.035156 24.058594 71.976562 24.035156 C 72.140625 24.113281 72.476562 24.191406 72.578125 24.191406 C 72.542969 24.1875 72.429688 24.164062 72.382812 24.140625 C 72.476562 24.160156 72.605469 24.1875 72.71875 24.199219 C 72.828125 24.214844 72.921875 24.21875 72.933594 24.214844 C 72.65625 24.191406 72.644531 24.125 72.359375 24.078125 C 72.386719 24.074219 72.441406 24.0625 72.582031 24.105469 C 72.359375 24.019531 72.136719 23.941406 72.050781 23.871094 C 72.230469 23.96875 72.363281 23.96875 72.40625 23.976562 C 72.238281 23.917969 71.902344 23.796875 71.789062 23.757812 C 71.789062 23.726562 71.628906 23.65625 71.503906 23.585938 C 71.375 23.519531 71.277344 23.46875 71.394531 23.5 C 71.351562 23.5 71.117188 23.367188 71 23.28125 C 71.023438 23.265625 71.339844 23.433594 71.484375 23.480469 C 72.113281 23.773438 71.457031 23.519531 71.59375 23.609375 C 71.75 23.6875 71.914062 23.761719 72.078125 23.820312 C 72.03125 23.792969 72.285156 23.859375 71.964844 23.738281 C 72.125 23.765625 72.4375 23.851562 72.691406 23.9375 C 72.753906 23.933594 72.5625 23.890625 72.507812 23.875 C 72.570312 23.875 72.890625 23.890625 72.492188 23.777344 C 72.605469 23.8125 72.292969 23.746094 72.492188 23.828125 C 72.410156 23.808594 72.265625 23.753906 72.160156 23.707031 C 72.058594 23.65625 72 23.617188 72.089844 23.636719 C 71.992188 23.601562 71.855469 23.550781 71.722656 23.496094 C 71.59375 23.441406 71.464844 23.371094 71.386719 23.335938 C 71.351562 23.285156 71.523438 23.398438 71.605469 23.429688 C 71.421875 23.335938 71.238281 23.238281 71.058594 23.136719 L 71.199219 23.25 C 70.8125 23.003906 70.523438 22.90625 70.183594 22.738281 C 70.25 22.722656 70.527344 22.875 70.746094 22.980469 C 70.570312 22.8125 70.601562 22.925781 70.265625 22.722656 C 70.222656 22.691406 70.214844 22.671875 70.242188 22.671875 C 70.148438 22.632812 70.046875 22.59375 69.949219 22.558594 C 69.871094 22.507812 69.921875 22.523438 69.957031 22.539062 C 69.707031 22.4375 69.703125 22.457031 69.679688 22.457031 C 69.660156 22.460938 69.621094 22.445312 69.28125 22.308594 C 69.671875 22.507812 69.632812 22.433594 69.957031 22.605469 C 70.042969 22.671875 69.945312 22.636719 69.8125 22.578125 C 69.679688 22.523438 69.507812 22.453125 69.457031 22.441406 C 69.300781 22.359375 69.210938 22.308594 69.113281 22.25 C 69.066406 22.222656 69.011719 22.199219 68.941406 22.171875 C 68.90625 22.160156 68.871094 22.148438 68.828125 22.132812 C 68.78125 22.121094 68.734375 22.113281 68.675781 22.101562 C 68.835938 22.132812 68.839844 22.125 68.859375 22.125 C 68.882812 22.125 68.917969 22.128906 69.132812 22.207031 C 69.375 22.28125 69.015625 22.132812 68.96875 22.097656 C 68.910156 22.082031 68.925781 22.097656 68.917969 22.105469 C 68.90625 22.117188 68.875 22.105469 68.714844 22.058594 L 68.730469 22.054688 C 68.636719 22.039062 68.546875 22.019531 68.457031 22.015625 C 68.363281 22.003906 68.273438 21.992188 68.179688 21.992188 C 67.925781 21.9375 67.628906 21.964844 67.363281 22.007812 C 67.097656 22.058594 66.863281 22.144531 66.691406 22.179688 L 66.78125 22.199219 C 66.628906 22.257812 66.453125 22.335938 66.292969 22.417969 C 66.132812 22.503906 65.988281 22.589844 65.894531 22.652344 C 65.925781 22.601562 66.105469 22.488281 66.304688 22.378906 C 65.789062 22.632812 65.398438 22.949219 65.101562 23.191406 C 65.347656 23.070312 65.378906 23.042969 65.609375 22.921875 C 65.335938 23.179688 65.226562 23.125 64.855469 23.410156 C 64.824219 23.378906 64.953125 23.296875 64.835938 23.320312 C 64.691406 23.457031 64.417969 23.621094 64.238281 23.75 C 64.121094 23.761719 64.28125 23.640625 64.679688 23.382812 C 65 23.222656 65.296875 22.929688 65.570312 22.800781 L 65.402344 22.875 C 65.703125 22.660156 65.898438 22.546875 66.171875 22.375 L 66.164062 22.386719 C 66.207031 22.347656 66.246094 22.308594 66.289062 22.269531 C 66.238281 22.296875 66.183594 22.324219 66.132812 22.351562 C 66.179688 22.308594 66.28125 22.238281 66.386719 22.171875 C 66.492188 22.109375 66.601562 22.050781 66.65625 22.03125 C 66.394531 22.136719 66.273438 22.226562 66.183594 22.300781 C 66.097656 22.371094 66.046875 22.433594 65.945312 22.515625 C 65.738281 22.636719 65.589844 22.710938 65.457031 22.773438 C 65.328125 22.839844 65.21875 22.902344 65.101562 23.003906 C 65.066406 23 64.839844 23.125 65.003906 22.988281 C 65.210938 22.835938 65.382812 22.757812 65.386719 22.714844 C 65.15625 22.871094 65.234375 22.796875 64.894531 23.03125 C 64.847656 23.109375 64.613281 23.316406 64.382812 23.496094 C 64.257812 23.582031 64.109375 23.671875 63.964844 23.742188 C 63.820312 23.816406 63.679688 23.867188 63.574219 23.902344 C 63.839844 23.800781 64.085938 23.621094 64.007812 23.628906 C 63.941406 23.6875 63.808594 23.738281 63.707031 23.773438 C 63.605469 23.808594 63.535156 23.832031 63.582031 23.84375 C 63.425781 23.898438 63.21875 23.953125 63.042969 23.96875 C 62.867188 23.984375 62.730469 23.964844 62.714844 23.9375 C 62.859375 23.933594 63 23.925781 63.136719 23.90625 C 63.273438 23.882812 63.40625 23.855469 63.527344 23.804688 C 63.460938 23.828125 63.390625 23.835938 63.425781 23.8125 C 63.546875 23.777344 63.664062 23.734375 63.785156 23.679688 C 63.644531 23.730469 63.589844 23.738281 63.523438 23.753906 C 63.460938 23.769531 63.386719 23.792969 63.214844 23.835938 C 63.238281 23.835938 63.285156 23.832031 63.25 23.84375 C 63.164062 23.863281 63.058594 23.878906 62.972656 23.890625 L 62.957031 23.84375 C 62.832031 23.867188 62.644531 23.859375 62.4375 23.8125 C 62.230469 23.765625 62 23.679688 61.765625 23.585938 L 61.8125 23.597656 C 61.632812 23.503906 61.527344 23.464844 61.414062 23.425781 C 61.304688 23.382812 61.183594 23.339844 60.984375 23.207031 C 61.109375 23.269531 61.066406 23.214844 61.058594 23.179688 C 60.851562 23.066406 60.769531 22.953125 60.582031 22.796875 C 60.792969 22.992188 60.402344 22.722656 60.558594 22.859375 C 60.542969 22.910156 60.140625 22.597656 59.925781 22.433594 C 59.875 22.359375 60.050781 22.476562 60.191406 22.574219 C 60.335938 22.671875 60.457031 22.753906 60.316406 22.609375 C 60.109375 22.441406 60.035156 22.433594 60.179688 22.554688 C 60.046875 22.453125 59.882812 22.324219 59.71875 22.203125 C 59.554688 22.078125 59.398438 21.964844 59.296875 21.886719 C 59.199219 21.839844 59.121094 21.804688 59.050781 21.773438 C 58.976562 21.742188 58.914062 21.714844 58.851562 21.691406 C 58.792969 21.667969 58.738281 21.644531 58.679688 21.628906 C 58.621094 21.613281 58.558594 21.601562 58.492188 21.59375 C 58.703125 21.667969 58.734375 21.628906 58.980469 21.777344 C 58.882812 21.742188 58.78125 21.714844 58.683594 21.6875 C 58.308594 21.539062 57.984375 21.433594 57.691406 21.414062 C 57.742188 21.410156 57.792969 21.414062 57.84375 21.414062 C 57.894531 21.417969 57.945312 21.417969 57.996094 21.425781 L 57.980469 21.429688 C 58.039062 21.429688 58.167969 21.449219 58.269531 21.476562 C 58.375 21.496094 58.457031 21.523438 58.441406 21.5 C 58.375 21.488281 58.3125 21.472656 58.246094 21.460938 C 58.183594 21.445312 58.121094 21.433594 58.054688 21.421875 C 58.019531 21.414062 57.984375 21.410156 57.949219 21.402344 C 57.914062 21.398438 57.878906 21.394531 57.839844 21.390625 C 57.765625 21.378906 57.679688 21.382812 57.589844 21.386719 L 57.605469 21.378906 C 57.28125 21.390625 57.011719 21.421875 56.773438 21.472656 C 56.535156 21.527344 56.335938 21.597656 56.175781 21.714844 C 56.273438 21.667969 56.492188 21.625 56.433594 21.664062 C 56.363281 21.675781 56.246094 21.722656 56.144531 21.761719 C 56.046875 21.800781 55.964844 21.835938 55.964844 21.820312 L 56.074219 21.761719 C 55.761719 21.898438 55.585938 21.996094 55.484375 22.058594 C 55.414062 22.132812 55.507812 22.109375 55.308594 22.242188 C 54.800781 22.515625 55.476562 22.058594 55.128906 22.234375 L 54.683594 22.53125 L 54.574219 22.5625 C 54.234375 22.742188 53.949219 22.910156 53.65625 23.050781 C 53.359375 23.1875 53.054688 23.296875 52.695312 23.308594 C 52.6875 23.285156 52.8125 23.265625 52.960938 23.234375 C 53.105469 23.203125 53.277344 23.152344 53.363281 23.125 C 53.25 23.136719 53.117188 23.171875 52.976562 23.203125 C 52.835938 23.226562 52.6875 23.242188 52.542969 23.222656 C 52.277344 23.203125 52.0625 23.183594 52.101562 23.222656 C 51.929688 23.1875 51.871094 23.160156 51.851562 23.140625 C 51.828125 23.125 51.847656 23.117188 51.828125 23.105469 C 51.796875 23.109375 51.746094 23.101562 51.683594 23.082031 C 51.625 23.066406 51.550781 23.039062 51.472656 23.003906 C 51.320312 22.9375 51.148438 22.847656 51.011719 22.777344 L 51.011719 22.742188 C 50.867188 22.675781 50.722656 22.601562 50.578125 22.523438 C 50.683594 22.59375 50.574219 22.558594 50.566406 22.574219 L 50.460938 22.503906 C 50.648438 22.667969 50.886719 22.800781 51.125 22.914062 C 51.367188 23.027344 51.605469 23.125 51.8125 23.238281 C 51.675781 23.207031 51.851562 23.28125 51.714844 23.246094 C 51.601562 23.199219 51.582031 23.1875 51.574219 23.171875 C 51.5 23.167969 51.3125 23.109375 51.546875 23.210938 C 51.535156 23.234375 51.40625 23.199219 51.246094 23.125 C 51.082031 23.050781 50.886719 22.945312 50.722656 22.859375 C 50.605469 22.765625 50.679688 22.792969 50.796875 22.847656 C 50.917969 22.902344 51.082031 22.980469 51.15625 23 C 51.03125 22.941406 50.921875 22.910156 50.753906 22.792969 L 50.816406 22.777344 C 50.375 22.535156 50.683594 22.742188 50.5625 22.722656 C 50.417969 22.699219 50.175781 22.46875 50.054688 22.394531 L 50.1875 22.46875 C 49.863281 22.234375 49.761719 22.222656 49.453125 22.027344 L 49.324219 21.902344 C 49.695312 22.183594 49.832031 22.148438 50.039062 22.3125 C 49.5 21.910156 50.207031 22.308594 50.394531 22.382812 C 50.152344 22.238281 49.9375 22.089844 49.816406 21.980469 C 49.4375 21.804688 49.0625 21.484375 48.648438 21.375 C 48.4375 21.273438 48.847656 21.429688 48.621094 21.328125 C 48.210938 21.136719 47.714844 21 47.21875 21.023438 C 47.089844 21.019531 47.035156 21.019531 47.003906 21.011719 C 46.976562 21.007812 46.96875 20.996094 46.929688 20.988281 C 46.621094 21.003906 46.363281 21.070312 46.140625 21.144531 C 45.914062 21.21875 45.722656 21.3125 45.53125 21.410156 C 45.152344 21.613281 44.789062 21.855469 44.261719 22.1875 L 44.402344 22.0625 C 44.179688 22.203125 43.992188 22.320312 43.898438 22.421875 C 43.746094 22.476562 43.523438 22.640625 43.292969 22.800781 C 43.0625 22.957031 42.816406 23.109375 42.625 23.160156 C 42.394531 23.269531 42.28125 23.328125 42.175781 23.386719 C 42.125 23.414062 42.074219 23.441406 42.019531 23.472656 C 41.957031 23.5 41.890625 23.53125 41.796875 23.558594 C 41.792969 23.539062 41.898438 23.480469 41.707031 23.515625 C 41.109375 23.679688 40.53125 23.605469 39.945312 23.375 C 39.355469 23.144531 38.777344 22.773438 38.113281 22.367188 C 38.128906 22.371094 38.199219 22.40625 38.234375 22.425781 C 37.808594 22.15625 37.363281 21.90625 36.90625 21.714844 C 36.449219 21.527344 35.976562 21.40625 35.535156 21.363281 C 35.449219 21.363281 35.285156 21.367188 35.160156 21.386719 C 35.03125 21.398438 34.949219 21.429688 35.027344 21.433594 C 35.230469 21.421875 35.261719 21.464844 35.246094 21.488281 C 34.867188 21.527344 34.777344 21.546875 34.710938 21.539062 C 34.679688 21.535156 34.65625 21.53125 34.605469 21.535156 C 34.558594 21.539062 34.488281 21.550781 34.367188 21.59375 C 34.28125 21.585938 34.355469 21.550781 34.453125 21.515625 C 34.546875 21.480469 34.667969 21.441406 34.664062 21.414062 C 34.417969 21.480469 34.179688 21.574219 33.957031 21.679688 C 33.558594 21.820312 33.214844 22.058594 32.894531 22.21875 C 33.035156 22.140625 32.917969 22.148438 33.160156 22.035156 C 33.125 22.058594 33.152344 22.046875 33.117188 22.070312 C 33.386719 21.921875 33.457031 21.878906 33.523438 21.835938 C 33.585938 21.792969 33.640625 21.746094 33.894531 21.628906 C 33.671875 21.730469 33.417969 21.867188 33.175781 22.011719 C 32.941406 22.152344 32.714844 22.289062 32.53125 22.398438 C 32.628906 22.386719 32.253906 22.597656 32.167969 22.683594 L 32.144531 22.695312 C 32.152344 22.710938 31.941406 22.859375 31.878906 22.902344 L 31.765625 22.910156 C 31.617188 23.011719 31.824219 22.910156 31.671875 23.007812 C 31.570312 23.078125 31.320312 23.226562 31.089844 23.339844 C 30.855469 23.449219 30.636719 23.523438 30.601562 23.503906 C 30.535156 23.53125 30.480469 23.550781 30.433594 23.570312 C 30.382812 23.589844 30.339844 23.609375 30.296875 23.621094 C 30.253906 23.636719 30.207031 23.652344 30.15625 23.664062 C 30.105469 23.675781 30.046875 23.691406 29.976562 23.699219 C 29.996094 23.683594 30.0625 23.664062 30.074219 23.65625 C 29.773438 23.710938 29.4375 23.714844 29.113281 23.648438 C 28.949219 23.617188 28.789062 23.5625 28.636719 23.503906 C 28.484375 23.441406 28.335938 23.367188 28.207031 23.289062 C 27.757812 23.070312 27.386719 22.820312 27.09375 22.660156 C 27.210938 22.738281 27.546875 22.980469 27.316406 22.863281 C 27.191406 22.800781 27.015625 22.671875 26.828125 22.550781 C 26.886719 22.558594 26.375 22.207031 26.753906 22.445312 C 26.722656 22.386719 26.523438 22.25 26.332031 22.128906 C 26.140625 22.003906 25.953125 21.894531 25.96875 21.871094 C 25.921875 21.851562 25.757812 21.757812 25.570312 21.664062 C 25.386719 21.570312 25.171875 21.492188 25.050781 21.460938 C 25.03125 21.441406 25.113281 21.46875 25.207031 21.5 C 25.296875 21.53125 25.386719 21.574219 25.390625 21.566406 L 25.253906 21.507812 L 25.113281 21.457031 L 25.117188 21.4375 C 24.847656 21.328125 24.671875 21.304688 24.527344 21.292969 C 24.382812 21.285156 24.269531 21.292969 24.097656 21.289062 L 24.109375 21.28125 C 24.03125 21.28125 23.953125 21.289062 23.875 21.289062 C 23.964844 21.273438 24.058594 21.253906 24.152344 21.246094 C 23.964844 21.238281 23.820312 21.257812 23.675781 21.285156 C 23.53125 21.320312 23.382812 21.355469 23.1875 21.421875 L 23.144531 21.417969 C 23.066406 21.445312 22.992188 21.480469 22.914062 21.515625 C 22.953125 21.496094 22.964844 21.484375 22.9375 21.492188 C 22.886719 21.519531 22.820312 21.558594 22.742188 21.597656 C 22.667969 21.636719 22.582031 21.679688 22.503906 21.726562 C 22.339844 21.816406 22.183594 21.917969 22.101562 21.992188 C 21.964844 22.066406 21.824219 22.09375 21.667969 22.246094 L 21.671875 22.175781 C 21.890625 22.023438 21.941406 22.003906 21.988281 21.984375 C 22.011719 21.972656 22.039062 21.960938 22.085938 21.933594 C 22.132812 21.90625 22.207031 21.859375 22.328125 21.785156 C 22.128906 21.851562 21.78125 22.050781 21.425781 22.300781 C 21.070312 22.546875 20.695312 22.832031 20.390625 23.035156 C 20.15625 23.214844 19.820312 23.40625 19.515625 23.527344 C 19.214844 23.65625 18.945312 23.699219 18.832031 23.753906 L 18.886719 23.710938 C 18.8125 23.722656 18.738281 23.71875 18.664062 23.722656 C 18.589844 23.71875 18.515625 23.71875 18.441406 23.707031 C 18.296875 23.691406 18.148438 23.65625 18.007812 23.609375 C 17.636719 23.507812 17.277344 23.296875 16.945312 23.074219 C 16.613281 22.847656 16.304688 22.609375 16.027344 22.425781 L 15.894531 22.289062 C 15.589844 22.121094 15.09375 21.761719 14.550781 21.546875 C 14.277344 21.441406 13.996094 21.375 13.757812 21.359375 C 13.515625 21.355469 13.316406 21.375 13.207031 21.421875 C 12.804688 21.433594 13.320312 21.363281 13.363281 21.339844 C 13.289062 21.34375 13.199219 21.355469 13.109375 21.371094 C 13.0625 21.375 13.015625 21.386719 12.96875 21.402344 C 12.921875 21.414062 12.875 21.429688 12.824219 21.441406 C 12.730469 21.464844 12.640625 21.5 12.554688 21.523438 C 12.507812 21.539062 12.46875 21.550781 12.429688 21.558594 C 12.390625 21.570312 12.351562 21.578125 12.316406 21.585938 C 12.316406 21.578125 12.410156 21.53125 12.484375 21.507812 C 12.5625 21.480469 12.617188 21.460938 12.523438 21.484375 C 12.417969 21.496094 12.347656 21.535156 12.277344 21.570312 C 12.203125 21.609375 12.125 21.640625 12.011719 21.675781 C 12.066406 21.667969 11.984375 21.726562 11.851562 21.804688 C 11.71875 21.882812 11.539062 21.988281 11.386719 22.074219 C 11.441406 22.042969 11.441406 22.042969 11.46875 22.035156 C 11.523438 22.035156 11.292969 22.152344 11.167969 22.222656 C 11.167969 22.222656 11.175781 22.210938 11.210938 22.1875 C 10.816406 22.410156 10.417969 22.640625 9.988281 22.8125 C 9.5625 22.984375 9.105469 23.105469 8.640625 23.066406 C 8.410156 23.050781 8.179688 23.007812 7.953125 22.941406 C 7.726562 22.871094 7.503906 22.785156 7.289062 22.683594 C 6.855469 22.480469 6.445312 22.226562 6.042969 21.976562 L 6.355469 22.132812 C 6.113281 22.011719 5.707031 21.75 5.578125 21.664062 L 5.613281 21.683594 C 5.402344 21.527344 5.269531 21.472656 5.148438 21.425781 C 5.089844 21.398438 5.03125 21.382812 4.96875 21.351562 C 4.90625 21.320312 4.839844 21.285156 4.753906 21.230469 L 4.828125 21.253906 C 4.546875 21.128906 4.316406 21.035156 4.082031 20.957031 C 3.851562 20.878906 3.609375 20.824219 3.304688 20.820312 C 3.183594 20.800781 3.097656 20.804688 3.027344 20.796875 C 2.957031 20.789062 2.910156 20.792969 2.863281 20.789062 C 2.816406 20.789062 2.777344 20.785156 2.726562 20.785156 C 2.675781 20.785156 2.613281 20.792969 2.527344 20.804688 C 2.453125 20.816406 2.394531 20.84375 2.34375 20.859375 C 2.292969 20.882812 2.25 20.898438 2.21875 20.917969 C 2.152344 20.957031 2.121094 20.980469 2.117188 20.988281 L 2.246094 20.933594 C 2.324219 20.925781 2.25 20.953125 2.140625 21.007812 C 2.03125 21.054688 1.890625 21.148438 1.804688 21.203125 C 1.882812 21.1875 1.910156 21.207031 1.984375 21.203125 C 2.019531 21.199219 2.066406 21.1875 2.140625 21.175781 C 2.210938 21.160156 2.300781 21.128906 2.433594 21.105469 C 2.527344 21.070312 2.597656 21.0625 2.660156 21.054688 C 2.691406 21.050781 2.71875 21.050781 2.742188 21.050781 C 2.769531 21.050781 2.796875 21.054688 2.820312 21.058594 C 2.871094 21.0625 2.921875 21.070312 2.988281 21.070312 C 3.054688 21.082031 3.136719 21.078125 3.242188 21.082031 C 3.304688 21.070312 3.375 21.066406 3.453125 21.078125 C 3.527344 21.089844 3.609375 21.105469 3.691406 21.128906 C 3.863281 21.175781 4.046875 21.234375 4.242188 21.273438 C 4.136719 21.261719 4.25 21.304688 4.34375 21.34375 C 4.4375 21.386719 4.511719 21.425781 4.34375 21.386719 C 4.378906 21.410156 4.445312 21.4375 4.53125 21.46875 C 4.617188 21.503906 4.722656 21.542969 4.828125 21.589844 C 5.042969 21.675781 5.269531 21.796875 5.398438 21.894531 C 5.351562 21.878906 5.355469 21.894531 5.289062 21.863281 C 5.6875 22.058594 5.539062 22.042969 5.828125 22.214844 L 5.835938 22.167969 C 5.957031 22.21875 5.972656 22.269531 6.078125 22.324219 C 6 22.269531 5.84375 22.152344 5.941406 22.1875 C 6.078125 22.257812 6.199219 22.308594 6.34375 22.394531 C 6.335938 22.414062 6.230469 22.359375 6.160156 22.324219 C 6.160156 22.324219 6.476562 22.515625 6.488281 22.546875 C 6.367188 22.496094 6.222656 22.410156 6.113281 22.375 C 6.519531 22.632812 6.136719 22.40625 6.324219 22.5625 C 6.289062 22.476562 6.695312 22.75 6.9375 22.855469 C 6.953125 22.890625 6.769531 22.777344 6.707031 22.761719 C 6.90625 22.925781 7.082031 23.007812 7.277344 23.078125 C 7.472656 23.148438 7.6875 23.214844 8.003906 23.308594 C 7.988281 23.3125 7.910156 23.296875 7.871094 23.285156 C 8.019531 23.324219 8.148438 23.359375 8.265625 23.390625 C 8.382812 23.414062 8.484375 23.441406 8.589844 23.429688 C 8.738281 23.441406 8.75 23.460938 8.785156 23.472656 C 8.804688 23.480469 8.824219 23.488281 8.875 23.492188 C 8.921875 23.496094 8.996094 23.503906 9.113281 23.484375 C 9.042969 23.464844 9.179688 23.453125 9.335938 23.4375 C 9.488281 23.40625 9.660156 23.367188 9.660156 23.335938 C 9.773438 23.3125 9.890625 23.292969 10.003906 23.265625 C 10.144531 23.191406 10.117188 23.175781 10.125 23.148438 C 10.132812 23.117188 10.179688 23.089844 10.445312 22.964844 C 10.941406 22.75 10.441406 23.082031 10.734375 22.972656 L 10.839844 22.882812 C 10.921875 22.851562 11 22.816406 11.082031 22.78125 L 11.046875 22.804688 C 11.183594 22.722656 11.4375 22.597656 11.445312 22.613281 C 11.429688 22.636719 11.28125 22.71875 11.261719 22.742188 C 11.371094 22.667969 11.605469 22.566406 11.832031 22.464844 C 12.058594 22.363281 12.28125 22.269531 12.382812 22.179688 C 12.453125 22.164062 12.554688 22.125 12.636719 22.109375 C 12.714844 22.089844 12.777344 22.078125 12.761719 22.097656 C 12.789062 22.082031 12.839844 22.054688 12.902344 22.042969 C 12.96875 22.027344 13.042969 22.015625 13.121094 22 C 13.199219 21.996094 13.277344 21.992188 13.347656 21.984375 C 13.382812 21.980469 13.414062 21.980469 13.445312 21.980469 C 13.472656 21.980469 13.5 21.980469 13.519531 21.976562 C 13.5 21.992188 13.660156 22.011719 13.789062 22.023438 C 13.617188 21.988281 13.726562 21.980469 13.847656 21.980469 C 13.921875 22.007812 14.070312 22.046875 14.203125 22.09375 C 14.335938 22.148438 14.453125 22.210938 14.476562 22.246094 C 14.714844 22.339844 14.648438 22.265625 14.710938 22.261719 C 14.78125 22.316406 14.933594 22.414062 15.050781 22.503906 C 15.171875 22.59375 15.261719 22.675781 15.207031 22.667969 C 15.085938 22.574219 14.8125 22.386719 14.847656 22.457031 C 15.074219 22.625 14.957031 22.503906 15.15625 22.632812 C 15.136719 22.628906 15.269531 22.753906 15.222656 22.742188 C 15.339844 22.816406 15.5 22.9375 15.660156 23.070312 C 15.417969 22.851562 15.84375 23.164062 15.703125 23.027344 L 15.433594 22.875 C 15.136719 22.660156 15.390625 22.800781 15.285156 22.707031 C 15.546875 22.894531 15.660156 22.964844 15.773438 23.023438 C 15.886719 23.085938 15.992188 23.144531 16.253906 23.324219 C 16.34375 23.40625 16.511719 23.542969 16.566406 23.582031 C 16.390625 23.460938 16.398438 23.527344 16.492188 23.609375 C 16.808594 23.78125 17.023438 23.996094 17.304688 24.140625 C 17.183594 24.078125 17.164062 24.050781 17.179688 24.046875 C 17.195312 24.042969 17.253906 24.058594 17.300781 24.074219 C 17.59375 24.199219 17.65625 24.214844 17.671875 24.234375 C 17.683594 24.25 17.652344 24.261719 17.785156 24.316406 C 18.027344 24.390625 18.261719 24.433594 18.480469 24.453125 C 18.699219 24.46875 18.90625 24.457031 19.101562 24.429688 C 19.492188 24.367188 19.84375 24.238281 20.183594 24.035156 C 20.066406 24.082031 19.949219 24.121094 19.828125 24.15625 L 19.726562 24.246094 C 19.582031 24.285156 19.585938 24.253906 19.648438 24.207031 C 19.707031 24.15625 19.816406 24.085938 19.886719 24.039062 C 19.90625 24.035156 20.027344 23.984375 20.117188 23.9375 C 20.207031 23.894531 20.269531 23.859375 20.191406 23.917969 C 20.324219 23.839844 20.453125 23.753906 20.578125 23.667969 C 20.515625 23.6875 20.261719 23.847656 20.4375 23.71875 C 20.574219 23.652344 20.964844 23.398438 20.734375 23.585938 C 20.9375 23.457031 21.171875 23.265625 21.117188 23.273438 C 21.425781 23.046875 21.117188 23.34375 20.984375 23.457031 C 21.234375 23.285156 21.21875 23.339844 21.152344 23.40625 L 21.492188 23.152344 C 21.421875 23.21875 21.433594 23.234375 21.363281 23.296875 C 21.597656 23.148438 21.726562 22.992188 21.933594 22.894531 L 21.996094 22.800781 C 22.308594 22.605469 22.445312 22.535156 22.578125 22.464844 C 22.710938 22.398438 22.839844 22.324219 23.125 22.210938 L 23.019531 22.222656 C 23.230469 22.105469 23.316406 22.101562 23.417969 22.085938 C 23.519531 22.078125 23.636719 22.050781 23.929688 22.03125 C 24.257812 22.007812 24.480469 22.0625 24.445312 22.003906 C 24.542969 22.015625 24.605469 22.035156 24.648438 22.054688 C 24.695312 22.074219 24.726562 22.097656 24.765625 22.117188 C 24.84375 22.132812 24.96875 22.160156 25.105469 22.207031 C 25.238281 22.253906 25.378906 22.324219 25.492188 22.402344 C 25.324219 22.328125 25.191406 22.273438 25.039062 22.210938 C 25.054688 22.242188 25.179688 22.300781 25.335938 22.382812 C 25.488281 22.460938 25.664062 22.5625 25.78125 22.648438 C 25.871094 22.695312 26.058594 22.792969 26.265625 22.910156 C 26.472656 23.027344 26.703125 23.160156 26.867188 23.25 C 26.746094 23.121094 26.824219 23.117188 27.125 23.277344 C 27.066406 23.273438 27.492188 23.558594 27.695312 23.691406 C 27.578125 23.660156 28.136719 24.015625 27.6875 23.777344 C 27.5625 23.6875 27.523438 23.621094 27.347656 23.527344 C 27.4375 23.613281 27.691406 23.816406 27.988281 23.992188 C 27.976562 23.992188 27.925781 23.976562 27.859375 23.953125 C 27.796875 23.921875 27.71875 23.886719 27.640625 23.839844 C 27.730469 23.878906 27.683594 23.84375 27.675781 23.828125 " fill-opacity="1" fill-rule="nonzero"/></g><path fill="rgb(0%, 0%, 0%)" d="M 70.238281 22.839844 C 70.222656 22.832031 70.210938 22.824219 70.195312 22.8125 L 70.246094 22.855469 C 70.230469 22.839844 70.230469 22.839844 70.238281 22.839844 " fill-opacity="1" fill-rule="nonzero"/><path fill="rgb(0%, 0%, 0%)" d="M 36.9375 22.542969 C 36.957031 22.550781 37 22.566406 37.003906 22.5625 C 36.976562 22.550781 36.949219 22.542969 36.9375 22.542969 " fill-opacity="1" fill-rule="nonzero"/><path fill="rgb(0%, 0%, 0%)" d="M 43.617188 23.46875 C 43.609375 23.46875 43.605469 23.464844 43.601562 23.464844 C 43.597656 23.46875 43.601562 23.472656 43.617188 23.46875 " fill-opacity="1" fill-rule="nonzero"/><path fill="rgb(0%, 0%, 0%)" d="M 70.496094 23.355469 L 70.386719 23.300781 C 70.425781 23.324219 70.445312 23.328125 70.496094 23.355469 " fill-opacity="1" fill-rule="nonzero"/></svg>